<svg width="32" height="32" viewBox="0 0 32 32" xmlns="http://www.w3.org/2000/svg"><g fill="none" fill-rule="evenodd"><path d="M19,25 L13,25 L13,27 C13,27.5522847 12.5522847,28 12,28 L10,28 C9.44771525,28 9,27.5522847 9,27 L9,24.4648712 C7.80439726,23.7732524 7,22.4805647 7,21 L7,9 C7,6.790861 8.790861,5 11,5 L21,5 C23.209139,5 25,6.790861 25,9 L25,21 C25,22.4805647 24.1956027,23.7732524 23,24.4648712 L23,27 C23,27.5522847 22.5522847,28 22,28 L20,28 C19.4477153,28 19,27.5522847 19,27 L19,25 Z M10.13913,11 C9.59781125,11 9.15476893,11.4307379 9.13952648,11.971842 L8.99868071,16.971842 C8.99841638,16.9812257 8.99828419,16.9906126 8.99828419,17 C8.99828419,17.5522847 9.44599944,18 9.99828419,18 L22.3073616,18 C22.316749,18 22.3261359,17.9998678 22.3355196,17.9996035 C22.8875853,17.9840523 23.3225163,17.5239078 23.3069651,16.971842 L23.1661193,11.971842 C23.1508769,11.4307379 22.7078345,11 22.1665158,11 L10.13913,11 Z M13,7 C12.4477153,7 12,7.44771525 12,8 C12,8.55228475 12.4477153,9 13,9 L19,9 C19.5522847,9 20,8.55228475 20,8 C20,7.44771525 19.5522847,7 19,7 L13,7 Z" fill="#3C4650"/><circle fill="#FFFFFF" cx="11.5" cy="21" r="1.5"/><circle fill="#FFFFFF" cx="20.5" cy="21" r="1.5"/></g></svg>