<svg width="32" height="32" viewBox="0 0 32 32" xmlns="http://www.w3.org/2000/svg"><g fill="none" fill-rule="evenodd"><path d="M18.4815632,25 L13.5885834,25 L9.79429168,28 L6,28 L9.93066579,24.8554674 C8.24072779,24.3877775 7,22.8387825 7,21 L7,9 C7,6.790861 8.790861,5 11,5 L21,5 C23.209139,5 25,6.790861 25,9 L25,21 C25,22.8387825 23.7592722,24.3877775 22.0693342,24.8554674 L26,28 L22.2407816,28 L18.4815632,25 Z M17,16 L21.2773917,16 C21.7725187,16 22.1931003,15.6376743 22.2663791,15.148 L23.1642672,9.14799999 C23.1715988,9.09900753 23.1752798,9.049538 23.1752798,9 C23.1752798,8.44771525 22.7275646,8 22.1752798,8 L17,8 L17,16 Z M15,16 L15,8 L10.1306373,8 C10.0810993,8 10.0316298,8.00368101 9.98263732,8.01101264 C9.43643469,8.09275078 9.05991182,8.60179735 9.14164995,9.14799999 L10.039538,15.148 C10.1128168,15.6376743 10.5333984,16 11.0285254,16 L15,16 Z" fill="#3C4650"/><circle fill="#FFFFFF" cx="16" cy="20" r="2"/><circle fill="#FFFFFF" cx="11.5" cy="20" r="1.5"/><circle fill="#FFFFFF" cx="20.5" cy="20" r="1.5"/></g></svg>