<svg width="32" height="32" viewBox="0 0 32 32" xmlns="http://www.w3.org/2000/svg"><path d="M18.4815632,25 L13.5885834,25 L9.79429168,28 L6,28 L9.93066579,24.8554674 C8.24072779,24.3877775 7,22.8387825 7,21 L7,9 C7,6.790861 8.790861,5 11,5 L13.820425,5 L11.2642299,3.82720485 C11.0835197,3.74429408 11.0042376,3.53058702 11.0871483,3.34987677 C11.1230808,3.27155922 11.1859124,3.20872763 11.2642299,3.17279515 L16,1 L20.7357701,3.17279515 C20.9164803,3.25570592 20.9957624,3.46941298 20.9128517,3.65012323 C20.8769192,3.72844078 20.8140876,3.79127237 20.7357701,3.82720485 L18.179575,5 L21,5 C23.209139,5 25,6.790861 25,9 L25,21 C25,22.8387825 23.7592722,24.3877775 22.0693342,24.8554674 L26,28 L22.2407816,28 L18.4815632,25 Z M15.9786519,5 L16.0213481,5 L19.2907107,3.5 L16,1.99020537 L12.7092893,3.5 L15.9786519,5 Z M21.3186977,17 C21.7955484,17 22.2060597,16.6633063 22.2993668,16.1956736 L23.0974895,12.1956736 C23.1103455,12.1312425 23.1168204,12.0657012 23.1168204,12 C23.1168204,11.4477153 22.6691052,11 22.1168204,11 L10.1890967,11 C10.1233955,11 10.0578542,11.0064749 9.99342311,11.0193309 C9.45181453,11.1273984 9.10036007,11.654065 9.2084276,12.1956736 L10.0065503,16.1956736 C10.0998574,16.6633063 10.5103687,17 10.9872194,17 L21.3186977,17 Z M10,7 C9.44771525,7 9,7.44771525 9,8 C9,8.55228475 9.44771525,9 10,9 L22,9 C22.5522847,9 23,8.55228475 23,8 C23,7.44771525 22.5522847,7 22,7 L10,7 Z M16,23 C17.1045695,23 18,22.1045695 18,21 C18,19.8954305 17.1045695,19 16,19 C14.8954305,19 14,19.8954305 14,21 C14,22.1045695 14.8954305,23 16,23 Z" fill="#3C4650" fill-rule="evenodd"/></svg>